<svg width="21" height="21" viewBox="0 0 21 21" fill="none" xmlns="http://www.w3.org/2000/svg">
<path fill-rule="evenodd" clip-rule="evenodd" d="M20.5797 10.7385C20.5797 9.99392 20.5129 9.27802 20.3888 8.59076H10.4998V12.6523H16.1507C15.9072 13.9648 15.1675 15.0768 14.0555 15.8213V18.4558H17.4488C19.4342 16.6279 20.5797 13.9361 20.5797 10.7385Z" fill="#4285F4"/>
<path fill-rule="evenodd" clip-rule="evenodd" d="M10.4997 20.9995C13.3347 20.9995 15.7115 20.0593 17.4487 18.4557L14.0554 15.8212C13.1151 16.4512 11.9124 16.8234 10.4997 16.8234C7.76499 16.8234 5.45025 14.9764 4.62459 12.4946H1.11668V15.215C2.84439 18.6466 6.39524 20.9995 10.4997 20.9995Z" fill="#34A853"/>
<path fill-rule="evenodd" clip-rule="evenodd" d="M4.6247 12.495C4.41471 11.865 4.29539 11.192 4.29539 10.5C4.29539 9.80795 4.41471 9.13501 4.6247 8.50502V5.78461H1.1168C0.405676 7.20209 0 8.8057 0 10.5C0 12.1943 0.405676 13.7979 1.1168 15.2154L4.6247 12.495Z" fill="#FBBC05"/>
<path fill-rule="evenodd" clip-rule="evenodd" d="M10.4997 4.17607C12.0413 4.17607 13.4254 4.70584 14.5135 5.74628L17.5251 2.73473C15.7067 1.04044 13.3299 0 10.4997 0C6.39524 0 2.84439 2.35292 1.11668 5.78446L4.62459 8.50487C5.45025 6.02309 7.76499 4.17607 10.4997 4.17607Z" fill="#EA4335"/>
</svg>
